<mxfile host="app.diagrams.net" modified="2023-10-10T13:31:25.128Z" agent="Mozilla/5.0 (Windows NT 10.0; Win64; x64) AppleWebKit/537.36 (KHTML, like Gecko) Chrome/117.0.0.0 Safari/537.36" etag="V90MBSb0vFQU04jCBTei" version="22.0.4" type="device">
  <diagram name="Page-1" id="hSSh6HUDLKAB-audP68a">
    <mxGraphModel dx="1221" dy="622" grid="1" gridSize="10" guides="1" tooltips="1" connect="1" arrows="1" fold="1" page="1" pageScale="1" pageWidth="827" pageHeight="1169" math="0" shadow="0">
      <root>
        <mxCell id="0" />
        <mxCell id="1" parent="0" />
        <mxCell id="DjfJ92bOLM5pjzjouh9s-1" value="" style="rounded=0;whiteSpace=wrap;html=1;fillColor=#dae8fc;strokeColor=#6c8ebf;" parent="1" vertex="1">
          <mxGeometry x="100" y="140" width="850" height="680" as="geometry" />
        </mxCell>
        <mxCell id="DjfJ92bOLM5pjzjouh9s-2" value="&lt;b&gt;file _format &amp;lt; long 8b&amp;gt;&lt;/b&gt;" style="rounded=0;whiteSpace=wrap;html=1;fillColor=#dae8fc;strokeColor=#6c8ebf;" parent="1" vertex="1">
          <mxGeometry x="100" y="140" width="350" height="50" as="geometry" />
        </mxCell>
        <mxCell id="DjfJ92bOLM5pjzjouh9s-6" value="&lt;b&gt;start_time &amp;lt;long 8b&amp;gt;&lt;/b&gt;" style="rounded=0;whiteSpace=wrap;html=1;fillColor=#dae8fc;strokeColor=#6c8ebf;" parent="1" vertex="1">
          <mxGeometry x="450" y="140" width="500" height="50" as="geometry" />
        </mxCell>
        <mxCell id="DjfJ92bOLM5pjzjouh9s-20" value="&lt;b&gt;&lt;font style=&quot;font-size: 16px;&quot;&gt;...&lt;/font&gt;&lt;/b&gt;" style="rounded=0;whiteSpace=wrap;html=1;fillColor=#E1DDDA;strokeColor=#050505;" parent="1" vertex="1">
          <mxGeometry x="110" y="484" width="830" height="40" as="geometry" />
        </mxCell>
        <mxCell id="opuUx4HTGW1XHOAFsOIf-40" value="" style="rounded=0;whiteSpace=wrap;html=1;fillColor=#d5e8d4;strokeColor=#82b366;opacity=80;" parent="1" vertex="1">
          <mxGeometry x="109" y="197" width="831" height="279" as="geometry" />
        </mxCell>
        <mxCell id="opuUx4HTGW1XHOAFsOIf-41" value="&lt;b&gt;time &amp;lt;varint 1-4b&amp;gt;&lt;/b&gt;" style="rounded=0;whiteSpace=wrap;html=1;fillColor=#d5e8d4;strokeColor=#82b366;" parent="1" vertex="1">
          <mxGeometry x="109" y="197" width="61" height="60" as="geometry" />
        </mxCell>
        <mxCell id="opuUx4HTGW1XHOAFsOIf-42" value="&lt;b&gt;method &amp;lt;varint &lt;br&gt;1-4b&amp;gt;&lt;/b&gt;" style="rounded=0;whiteSpace=wrap;html=1;fillColor=#d5e8d4;strokeColor=#82b366;" parent="1" vertex="1">
          <mxGeometry x="170" y="197" width="70" height="60" as="geometry" />
        </mxCell>
        <mxCell id="opuUx4HTGW1XHOAFsOIf-43" value="&lt;b&gt;duration &amp;lt;&lt;/b&gt;&lt;b style=&quot;border-color: var(--border-color);&quot;&gt;varint &lt;br&gt;1-&lt;/b&gt;&lt;b&gt;4b&amp;gt;&lt;/b&gt;" style="rounded=0;whiteSpace=wrap;html=1;fillColor=#d5e8d4;strokeColor=#82b366;" parent="1" vertex="1">
          <mxGeometry x="240" y="197" width="69" height="60" as="geometry" />
        </mxCell>
        <mxCell id="opuUx4HTGW1XHOAFsOIf-44" value="&lt;b&gt;calls&lt;br&gt;&amp;lt;&lt;/b&gt;&lt;b style=&quot;border-color: var(--border-color);&quot;&gt;varint &lt;br&gt;1-&lt;/b&gt;&lt;b&gt;4b&amp;gt;&lt;/b&gt;" style="rounded=0;whiteSpace=wrap;html=1;fillColor=#d5e8d4;strokeColor=#82b366;" parent="1" vertex="1">
          <mxGeometry x="310" y="197" width="80" height="60" as="geometry" />
        </mxCell>
        <mxCell id="opuUx4HTGW1XHOAFsOIf-45" value="&lt;b&gt;thread index&lt;br&gt;&amp;lt;&lt;/b&gt;&lt;b style=&quot;border-color: var(--border-color);&quot;&gt;varint &lt;br&gt;1-&lt;/b&gt;&lt;b&gt;4b&amp;gt;&lt;/b&gt;" style="rounded=0;whiteSpace=wrap;html=1;fillColor=#d5e8d4;strokeColor=#82b366;" parent="1" vertex="1">
          <mxGeometry x="390" y="197" width="69" height="60" as="geometry" />
        </mxCell>
        <mxCell id="opuUx4HTGW1XHOAFsOIf-46" value="&lt;b&gt;length &amp;lt;&lt;/b&gt;&lt;b style=&quot;border-color: var(--border-color);&quot;&gt;varint &lt;br&gt;1-&lt;/b&gt;&lt;b&gt;4b&amp;gt;&lt;/b&gt;" style="rounded=0;whiteSpace=wrap;html=1;fillColor=#A6B5A5;strokeColor=#82b366;fillStyle=auto;" parent="1" vertex="1">
          <mxGeometry x="460" y="197" width="70" height="60" as="geometry" />
        </mxCell>
        <mxCell id="opuUx4HTGW1XHOAFsOIf-47" value="&lt;b&gt;thread&lt;br&gt;names&lt;br&gt;&amp;lt;string&amp;gt;&lt;br&gt;&lt;/b&gt;" style="rounded=0;whiteSpace=wrap;html=1;fillColor=#d5e8d4;strokeColor=#82b366;" parent="1" vertex="1">
          <mxGeometry x="530" y="197" width="80" height="60" as="geometry" />
        </mxCell>
        <mxCell id="opuUx4HTGW1XHOAFsOIf-48" value="&lt;b&gt;logs written &amp;lt;&lt;/b&gt;&lt;b style=&quot;border-color: var(--border-color);&quot;&gt;varint &lt;br&gt;1-&lt;/b&gt;&lt;b&gt;4b&amp;gt;&lt;/b&gt;" style="rounded=0;whiteSpace=wrap;html=1;fillColor=#d5e8d4;strokeColor=#82b366;" parent="1" vertex="1">
          <mxGeometry x="610" y="197" width="69" height="60" as="geometry" />
        </mxCell>
        <mxCell id="opuUx4HTGW1XHOAFsOIf-49" value="&lt;b&gt;logs generated&lt;br&gt;&amp;lt;&lt;/b&gt;&lt;b style=&quot;border-color: var(--border-color);&quot;&gt;varint&lt;br&gt;1-&lt;/b&gt;&lt;b&gt;4b&amp;gt;&lt;/b&gt;" style="rounded=0;whiteSpace=wrap;html=1;fillColor=#d5e8d4;strokeColor=#82b366;" parent="1" vertex="1">
          <mxGeometry x="680" y="197" width="80" height="60" as="geometry" />
        </mxCell>
        <mxCell id="opuUx4HTGW1XHOAFsOIf-50" value="&lt;b&gt;trace file index &lt;br&gt;&amp;lt;&lt;/b&gt;&lt;b style=&quot;border-color: var(--border-color);&quot;&gt;varint &lt;br&gt;1-&lt;/b&gt;&lt;b&gt;4b&amp;gt;&lt;/b&gt;" style="rounded=0;whiteSpace=wrap;html=1;fillColor=#d5e8d4;strokeColor=#82b366;" parent="1" vertex="1">
          <mxGeometry x="760" y="197" width="93" height="60" as="geometry" />
        </mxCell>
        <mxCell id="opuUx4HTGW1XHOAFsOIf-51" value="&lt;b&gt;buffer offset&lt;br&gt;&amp;lt;&lt;/b&gt;&lt;b style=&quot;border-color: var(--border-color);&quot;&gt;varint&lt;br&gt;1-&lt;/b&gt;&lt;b&gt;4b&amp;gt;&lt;/b&gt;" style="rounded=0;whiteSpace=wrap;html=1;fillColor=#d5e8d4;strokeColor=#82b366;" parent="1" vertex="1">
          <mxGeometry x="853" y="197" width="87" height="60" as="geometry" />
        </mxCell>
        <mxCell id="opuUx4HTGW1XHOAFsOIf-52" value="&lt;b&gt;record index&lt;br&gt;&amp;lt;&lt;/b&gt;&lt;b style=&quot;border-color: var(--border-color);&quot;&gt;varint&lt;br&gt;1-&lt;/b&gt;&lt;b&gt;4b&amp;gt;&lt;/b&gt;" style="rounded=0;whiteSpace=wrap;html=1;fillColor=#d5e8d4;strokeColor=#82b366;" parent="1" vertex="1">
          <mxGeometry x="109" y="257" width="60" height="60" as="geometry" />
        </mxCell>
        <mxCell id="opuUx4HTGW1XHOAFsOIf-53" value="&lt;b&gt;cpu time&lt;br&gt;&amp;lt;&lt;/b&gt;&lt;b style=&quot;border-color: var(--border-color);&quot;&gt;varlong&lt;br&gt;1-&lt;/b&gt;&lt;b&gt;8b&amp;gt;&lt;/b&gt;" style="rounded=0;whiteSpace=wrap;html=1;fillColor=#d5e8d4;strokeColor=#82b366;" parent="1" vertex="1">
          <mxGeometry x="169" y="257" width="70" height="60" as="geometry" />
        </mxCell>
        <mxCell id="opuUx4HTGW1XHOAFsOIf-54" value="&lt;b&gt;wait time&lt;br&gt;&amp;lt;&lt;/b&gt;&lt;b style=&quot;border-color: var(--border-color);&quot;&gt;varlong&lt;br&gt;1-&lt;/b&gt;&lt;b&gt;8b&amp;gt;&lt;/b&gt;" style="rounded=0;whiteSpace=wrap;html=1;fillColor=#d5e8d4;strokeColor=#82b366;" parent="1" vertex="1">
          <mxGeometry x="239" y="257" width="70" height="60" as="geometry" />
        </mxCell>
        <mxCell id="opuUx4HTGW1XHOAFsOIf-55" value="&lt;b&gt;memory used&lt;br&gt;&amp;lt;&lt;/b&gt;&lt;b style=&quot;border-color: var(--border-color);&quot;&gt;varlong&lt;br&gt;1-&lt;/b&gt;&lt;b&gt;8b&amp;gt;&lt;/b&gt;" style="rounded=0;whiteSpace=wrap;html=1;fillColor=#d5e8d4;strokeColor=#82b366;" parent="1" vertex="1">
          <mxGeometry x="309" y="257" width="80" height="60" as="geometry" />
        </mxCell>
        <mxCell id="opuUx4HTGW1XHOAFsOIf-56" value="&lt;b&gt;file read&lt;br&gt;&amp;lt;&lt;/b&gt;&lt;b style=&quot;border-color: var(--border-color);&quot;&gt;varlong&lt;br&gt;1-&lt;/b&gt;&lt;b&gt;8b&amp;gt;&lt;/b&gt;" style="rounded=0;whiteSpace=wrap;html=1;fillColor=#d5e8d4;strokeColor=#82b366;" parent="1" vertex="1">
          <mxGeometry x="389" y="257" width="70" height="60" as="geometry" />
        </mxCell>
        <mxCell id="opuUx4HTGW1XHOAFsOIf-57" value="&lt;b&gt;file written&lt;br&gt;&amp;lt;&lt;/b&gt;&lt;b style=&quot;border-color: var(--border-color);&quot;&gt;varlong &lt;br&gt;1-&lt;/b&gt;&lt;b&gt;8b&amp;gt;&lt;/b&gt;" style="rounded=0;whiteSpace=wrap;html=1;fillColor=#d5e8d4;strokeColor=#82b366;" parent="1" vertex="1">
          <mxGeometry x="459" y="257" width="70" height="60" as="geometry" />
        </mxCell>
        <mxCell id="opuUx4HTGW1XHOAFsOIf-58" value="&lt;b&gt;net written&lt;br&gt;&amp;lt;&lt;/b&gt;&lt;b style=&quot;border-color: var(--border-color);&quot;&gt;varlong&lt;br&gt;1-&lt;/b&gt;&lt;b&gt;8b&amp;gt;&lt;/b&gt;" style="rounded=0;whiteSpace=wrap;html=1;fillColor=#d5e8d4;strokeColor=#82b366;" parent="1" vertex="1">
          <mxGeometry x="610" y="257" width="69" height="60" as="geometry" />
        </mxCell>
        <mxCell id="opuUx4HTGW1XHOAFsOIf-59" value="&lt;b&gt;net read&lt;br&gt;&amp;lt;&lt;/b&gt;&lt;b style=&quot;border-color: var(--border-color);&quot;&gt;varlong&lt;br&gt;1-&lt;/b&gt;&lt;b&gt;8b&amp;gt;&lt;/b&gt;" style="rounded=0;whiteSpace=wrap;html=1;fillColor=#d5e8d4;strokeColor=#82b366;" parent="1" vertex="1">
          <mxGeometry x="529" y="257" width="81" height="60" as="geometry" />
        </mxCell>
        <mxCell id="opuUx4HTGW1XHOAFsOIf-60" value="&lt;b&gt;transactions&lt;br&gt;&amp;lt;&lt;/b&gt;&lt;b style=&quot;border-color: var(--border-color);&quot;&gt;varint &lt;br&gt;1-&lt;/b&gt;&lt;b&gt;4b&amp;gt;&lt;/b&gt;" style="rounded=0;whiteSpace=wrap;html=1;fillColor=#d5e8d4;strokeColor=#82b366;" parent="1" vertex="1">
          <mxGeometry x="680" y="257" width="80" height="60" as="geometry" />
        </mxCell>
        <mxCell id="opuUx4HTGW1XHOAFsOIf-61" value="&lt;b&gt;queue wait duration&lt;br&gt;&amp;lt;&lt;/b&gt;&lt;b style=&quot;border-color: var(--border-color);&quot;&gt;varint 1-&lt;/b&gt;&lt;b&gt;4b&amp;gt;&lt;/b&gt;" style="rounded=0;whiteSpace=wrap;html=1;fillColor=#d5e8d4;strokeColor=#82b366;" parent="1" vertex="1">
          <mxGeometry x="760" y="257" width="93" height="60" as="geometry" />
        </mxCell>
        <mxCell id="opuUx4HTGW1XHOAFsOIf-62" value="&lt;b&gt;nparams&lt;br&gt;&amp;lt;&lt;/b&gt;&lt;b style=&quot;border-color: var(--border-color);&quot;&gt;varint&lt;br&gt;1-&lt;/b&gt;&lt;b&gt;4b&amp;gt;&lt;/b&gt;" style="rounded=0;whiteSpace=wrap;html=1;fillColor=#d5e8d4;strokeColor=#82b366;" parent="1" vertex="1">
          <mxGeometry x="853" y="257" width="87" height="60" as="geometry" />
        </mxCell>
        <mxCell id="opuUx4HTGW1XHOAFsOIf-65" value="&lt;b&gt;&lt;font style=&quot;font-size: 16px;&quot;&gt;...&lt;/font&gt;&lt;/b&gt;" style="rounded=0;whiteSpace=wrap;html=1;fillColor=#E1DDDA;strokeColor=#b85450;" parent="1" vertex="1">
          <mxGeometry x="290" y="387" width="530" height="30" as="geometry" />
        </mxCell>
        <mxCell id="opuUx4HTGW1XHOAFsOIf-101" value="" style="rounded=0;whiteSpace=wrap;html=1;fillColor=#d5e8d4;strokeColor=#82b366;opacity=80;" parent="1" vertex="1">
          <mxGeometry x="110" y="524" width="831" height="279" as="geometry" />
        </mxCell>
        <mxCell id="opuUx4HTGW1XHOAFsOIf-102" value="&lt;b&gt;time &amp;lt;varint 1-4b&amp;gt;&lt;/b&gt;" style="rounded=0;whiteSpace=wrap;html=1;fillColor=#d5e8d4;strokeColor=#82b366;" parent="1" vertex="1">
          <mxGeometry x="110" y="524" width="61" height="60" as="geometry" />
        </mxCell>
        <mxCell id="opuUx4HTGW1XHOAFsOIf-103" value="&lt;b&gt;method &amp;lt;varint &lt;br&gt;1-4b&amp;gt;&lt;/b&gt;" style="rounded=0;whiteSpace=wrap;html=1;fillColor=#d5e8d4;strokeColor=#82b366;" parent="1" vertex="1">
          <mxGeometry x="171" y="524" width="70" height="60" as="geometry" />
        </mxCell>
        <mxCell id="opuUx4HTGW1XHOAFsOIf-104" value="&lt;b&gt;duration &amp;lt;&lt;/b&gt;&lt;b style=&quot;border-color: var(--border-color);&quot;&gt;varint &lt;br&gt;1-&lt;/b&gt;&lt;b&gt;4b&amp;gt;&lt;/b&gt;" style="rounded=0;whiteSpace=wrap;html=1;fillColor=#d5e8d4;strokeColor=#82b366;" parent="1" vertex="1">
          <mxGeometry x="241" y="524" width="69" height="60" as="geometry" />
        </mxCell>
        <mxCell id="opuUx4HTGW1XHOAFsOIf-105" value="&lt;b&gt;calls&lt;br&gt;&amp;lt;&lt;/b&gt;&lt;b style=&quot;border-color: var(--border-color);&quot;&gt;varint &lt;br&gt;1-&lt;/b&gt;&lt;b&gt;4b&amp;gt;&lt;/b&gt;" style="rounded=0;whiteSpace=wrap;html=1;fillColor=#d5e8d4;strokeColor=#82b366;" parent="1" vertex="1">
          <mxGeometry x="311" y="524" width="80" height="60" as="geometry" />
        </mxCell>
        <mxCell id="opuUx4HTGW1XHOAFsOIf-106" value="&lt;b&gt;thread index&lt;br&gt;&amp;lt;&lt;/b&gt;&lt;b style=&quot;border-color: var(--border-color);&quot;&gt;varint &lt;br&gt;1-&lt;/b&gt;&lt;b&gt;4b&amp;gt;&lt;/b&gt;" style="rounded=0;whiteSpace=wrap;html=1;fillColor=#d5e8d4;strokeColor=#82b366;" parent="1" vertex="1">
          <mxGeometry x="391" y="524" width="69" height="60" as="geometry" />
        </mxCell>
        <mxCell id="opuUx4HTGW1XHOAFsOIf-107" value="&lt;b&gt;length &amp;lt;&lt;/b&gt;&lt;b style=&quot;border-color: var(--border-color);&quot;&gt;varint &lt;br&gt;1-&lt;/b&gt;&lt;b&gt;4b&amp;gt;&lt;/b&gt;" style="rounded=0;whiteSpace=wrap;html=1;fillColor=#A6B5A5;strokeColor=#82b366;fillStyle=auto;" parent="1" vertex="1">
          <mxGeometry x="461" y="524" width="70" height="60" as="geometry" />
        </mxCell>
        <mxCell id="opuUx4HTGW1XHOAFsOIf-108" value="&lt;b&gt;thread&lt;br&gt;names&lt;br&gt;&amp;lt;string&amp;gt;&lt;br&gt;&lt;/b&gt;" style="rounded=0;whiteSpace=wrap;html=1;fillColor=#d5e8d4;strokeColor=#82b366;" parent="1" vertex="1">
          <mxGeometry x="531" y="524" width="80" height="60" as="geometry" />
        </mxCell>
        <mxCell id="opuUx4HTGW1XHOAFsOIf-109" value="&lt;b&gt;logs written &amp;lt;&lt;/b&gt;&lt;b style=&quot;border-color: var(--border-color);&quot;&gt;varint &lt;br&gt;1-&lt;/b&gt;&lt;b&gt;4b&amp;gt;&lt;/b&gt;" style="rounded=0;whiteSpace=wrap;html=1;fillColor=#d5e8d4;strokeColor=#82b366;" parent="1" vertex="1">
          <mxGeometry x="611" y="524" width="69" height="60" as="geometry" />
        </mxCell>
        <mxCell id="opuUx4HTGW1XHOAFsOIf-110" value="&lt;b&gt;logs generated&lt;br&gt;&amp;lt;&lt;/b&gt;&lt;b style=&quot;border-color: var(--border-color);&quot;&gt;varint&lt;br&gt;1-&lt;/b&gt;&lt;b&gt;4b&amp;gt;&lt;/b&gt;" style="rounded=0;whiteSpace=wrap;html=1;fillColor=#d5e8d4;strokeColor=#82b366;" parent="1" vertex="1">
          <mxGeometry x="681" y="524" width="80" height="60" as="geometry" />
        </mxCell>
        <mxCell id="opuUx4HTGW1XHOAFsOIf-111" value="&lt;b&gt;trace file index &lt;br&gt;&amp;lt;&lt;/b&gt;&lt;b style=&quot;border-color: var(--border-color);&quot;&gt;varint &lt;br&gt;1-&lt;/b&gt;&lt;b&gt;4b&amp;gt;&lt;/b&gt;" style="rounded=0;whiteSpace=wrap;html=1;fillColor=#d5e8d4;strokeColor=#82b366;" parent="1" vertex="1">
          <mxGeometry x="761" y="524" width="93" height="60" as="geometry" />
        </mxCell>
        <mxCell id="opuUx4HTGW1XHOAFsOIf-112" value="&lt;b&gt;buffer offset&lt;br&gt;&amp;lt;&lt;/b&gt;&lt;b style=&quot;border-color: var(--border-color);&quot;&gt;varint&lt;br&gt;1-&lt;/b&gt;&lt;b&gt;4b&amp;gt;&lt;/b&gt;" style="rounded=0;whiteSpace=wrap;html=1;fillColor=#d5e8d4;strokeColor=#82b366;" parent="1" vertex="1">
          <mxGeometry x="854" y="524" width="87" height="60" as="geometry" />
        </mxCell>
        <mxCell id="opuUx4HTGW1XHOAFsOIf-113" value="&lt;b&gt;record index&lt;br&gt;&amp;lt;&lt;/b&gt;&lt;b style=&quot;border-color: var(--border-color);&quot;&gt;varint&lt;br&gt;1-&lt;/b&gt;&lt;b&gt;4b&amp;gt;&lt;/b&gt;" style="rounded=0;whiteSpace=wrap;html=1;fillColor=#d5e8d4;strokeColor=#82b366;" parent="1" vertex="1">
          <mxGeometry x="110" y="584" width="60" height="60" as="geometry" />
        </mxCell>
        <mxCell id="opuUx4HTGW1XHOAFsOIf-114" value="&lt;b&gt;cpu time&lt;br&gt;&amp;lt;&lt;/b&gt;&lt;b style=&quot;border-color: var(--border-color);&quot;&gt;varlong&lt;br&gt;1-&lt;/b&gt;&lt;b&gt;8b&amp;gt;&lt;/b&gt;" style="rounded=0;whiteSpace=wrap;html=1;fillColor=#d5e8d4;strokeColor=#82b366;" parent="1" vertex="1">
          <mxGeometry x="170" y="584" width="70" height="60" as="geometry" />
        </mxCell>
        <mxCell id="opuUx4HTGW1XHOAFsOIf-115" value="&lt;b&gt;wait time&lt;br&gt;&amp;lt;&lt;/b&gt;&lt;b style=&quot;border-color: var(--border-color);&quot;&gt;varlong&lt;br&gt;1-&lt;/b&gt;&lt;b&gt;8b&amp;gt;&lt;/b&gt;" style="rounded=0;whiteSpace=wrap;html=1;fillColor=#d5e8d4;strokeColor=#82b366;" parent="1" vertex="1">
          <mxGeometry x="240" y="584" width="70" height="60" as="geometry" />
        </mxCell>
        <mxCell id="opuUx4HTGW1XHOAFsOIf-116" value="&lt;b&gt;memory used&lt;br&gt;&amp;lt;&lt;/b&gt;&lt;b style=&quot;border-color: var(--border-color);&quot;&gt;varlong&lt;br&gt;1-&lt;/b&gt;&lt;b&gt;8b&amp;gt;&lt;/b&gt;" style="rounded=0;whiteSpace=wrap;html=1;fillColor=#d5e8d4;strokeColor=#82b366;" parent="1" vertex="1">
          <mxGeometry x="310" y="584" width="80" height="60" as="geometry" />
        </mxCell>
        <mxCell id="opuUx4HTGW1XHOAFsOIf-117" value="&lt;b&gt;file read&lt;br&gt;&amp;lt;&lt;/b&gt;&lt;b style=&quot;border-color: var(--border-color);&quot;&gt;varlong&lt;br&gt;1-&lt;/b&gt;&lt;b&gt;8b&amp;gt;&lt;/b&gt;" style="rounded=0;whiteSpace=wrap;html=1;fillColor=#d5e8d4;strokeColor=#82b366;" parent="1" vertex="1">
          <mxGeometry x="390" y="584" width="70" height="60" as="geometry" />
        </mxCell>
        <mxCell id="opuUx4HTGW1XHOAFsOIf-118" value="&lt;b&gt;file written&lt;br&gt;&amp;lt;&lt;/b&gt;&lt;b style=&quot;border-color: var(--border-color);&quot;&gt;varlong &lt;br&gt;1-&lt;/b&gt;&lt;b&gt;8b&amp;gt;&lt;/b&gt;" style="rounded=0;whiteSpace=wrap;html=1;fillColor=#d5e8d4;strokeColor=#82b366;" parent="1" vertex="1">
          <mxGeometry x="460" y="584" width="70" height="60" as="geometry" />
        </mxCell>
        <mxCell id="opuUx4HTGW1XHOAFsOIf-119" value="&lt;b&gt;net written&lt;br&gt;&amp;lt;&lt;/b&gt;&lt;b style=&quot;border-color: var(--border-color);&quot;&gt;varlong&lt;br&gt;1-&lt;/b&gt;&lt;b&gt;8b&amp;gt;&lt;/b&gt;" style="rounded=0;whiteSpace=wrap;html=1;fillColor=#d5e8d4;strokeColor=#82b366;" parent="1" vertex="1">
          <mxGeometry x="611" y="584" width="69" height="60" as="geometry" />
        </mxCell>
        <mxCell id="opuUx4HTGW1XHOAFsOIf-120" value="&lt;b&gt;net read&lt;br&gt;&amp;lt;&lt;/b&gt;&lt;b style=&quot;border-color: var(--border-color);&quot;&gt;varlong&lt;br&gt;1-&lt;/b&gt;&lt;b&gt;8b&amp;gt;&lt;/b&gt;" style="rounded=0;whiteSpace=wrap;html=1;fillColor=#d5e8d4;strokeColor=#82b366;" parent="1" vertex="1">
          <mxGeometry x="530" y="584" width="81" height="60" as="geometry" />
        </mxCell>
        <mxCell id="opuUx4HTGW1XHOAFsOIf-121" value="&lt;b&gt;transactions&lt;br&gt;&amp;lt;&lt;/b&gt;&lt;b style=&quot;border-color: var(--border-color);&quot;&gt;varint &lt;br&gt;1-&lt;/b&gt;&lt;b&gt;4b&amp;gt;&lt;/b&gt;" style="rounded=0;whiteSpace=wrap;html=1;fillColor=#d5e8d4;strokeColor=#82b366;" parent="1" vertex="1">
          <mxGeometry x="681" y="584" width="80" height="60" as="geometry" />
        </mxCell>
        <mxCell id="opuUx4HTGW1XHOAFsOIf-122" value="&lt;b&gt;queue wait duration&lt;br&gt;&amp;lt;&lt;/b&gt;&lt;b style=&quot;border-color: var(--border-color);&quot;&gt;varint 1-&lt;/b&gt;&lt;b&gt;4b&amp;gt;&lt;/b&gt;" style="rounded=0;whiteSpace=wrap;html=1;fillColor=#d5e8d4;strokeColor=#82b366;" parent="1" vertex="1">
          <mxGeometry x="761" y="584" width="93" height="60" as="geometry" />
        </mxCell>
        <mxCell id="opuUx4HTGW1XHOAFsOIf-123" value="&lt;b&gt;nparams&lt;br&gt;&amp;lt;&lt;/b&gt;&lt;b style=&quot;border-color: var(--border-color);&quot;&gt;varint&lt;br&gt;1-&lt;/b&gt;&lt;b&gt;4b&amp;gt;&lt;/b&gt;" style="rounded=0;whiteSpace=wrap;html=1;fillColor=#d5e8d4;strokeColor=#82b366;" parent="1" vertex="1">
          <mxGeometry x="854" y="584" width="87" height="60" as="geometry" />
        </mxCell>
        <mxCell id="rSH3QUQZg27DagNOebdl-1" value="&lt;b style=&quot;border-color: var(--border-color);&quot;&gt;&lt;br&gt;&lt;/b&gt;" style="rounded=0;whiteSpace=wrap;html=1;fillColor=#f8cecc;strokeColor=#b85450;" vertex="1" parent="1">
          <mxGeometry x="289.5" y="336" width="530.5" height="50" as="geometry" />
        </mxCell>
        <mxCell id="opuUx4HTGW1XHOAFsOIf-63" value="&lt;b&gt;param size &lt;br&gt;&amp;lt;&lt;/b&gt;&lt;b style=&quot;border-color: var(--border-color);&quot;&gt;varint&lt;br&gt;1-&lt;/b&gt;&lt;b&gt;4b&amp;gt;&lt;/b&gt;" style="rounded=0;whiteSpace=wrap;html=1;fillColor=#f8cecc;strokeColor=#b85450;" parent="1" vertex="1">
          <mxGeometry x="290" y="336" width="130" height="44" as="geometry" />
        </mxCell>
        <mxCell id="opuUx4HTGW1XHOAFsOIf-64" value="&lt;b style=&quot;border-color: var(--border-color);&quot;&gt;length&lt;br&gt;&amp;lt;&lt;b style=&quot;border-color: var(--border-color);&quot;&gt;varint&lt;br&gt;1-&lt;/b&gt;4b&amp;gt;&lt;/b&gt;" style="rounded=0;whiteSpace=wrap;html=1;fillColor=#F8B5B5;strokeColor=#b85450;" parent="1" vertex="1">
          <mxGeometry x="420" y="336" width="140" height="44" as="geometry" />
        </mxCell>
        <mxCell id="opuUx4HTGW1XHOAFsOIf-66" value="&lt;b style=&quot;border-color: var(--border-color);&quot;&gt;param string&lt;br&gt;&amp;lt;string&amp;gt;&lt;br&gt;&lt;/b&gt;" style="rounded=0;whiteSpace=wrap;html=1;fillColor=#f8cecc;strokeColor=#b85450;" parent="1" vertex="1">
          <mxGeometry x="560" y="336" width="200" height="44" as="geometry" />
        </mxCell>
        <mxCell id="rSH3QUQZg27DagNOebdl-2" value="&lt;font style=&quot;font-size: 9px;&quot;&gt;&lt;b&gt;param #1&lt;/b&gt;&lt;/font&gt;" style="text;html=1;strokeColor=none;fillColor=none;align=center;verticalAlign=middle;whiteSpace=wrap;rounded=0;" vertex="1" parent="1">
          <mxGeometry x="763" y="344" width="60" height="30" as="geometry" />
        </mxCell>
        <mxCell id="rSH3QUQZg27DagNOebdl-3" value="&lt;b style=&quot;border-color: var(--border-color);&quot;&gt;&lt;br&gt;&lt;/b&gt;" style="rounded=0;whiteSpace=wrap;html=1;fillColor=#f8cecc;strokeColor=#b85450;" vertex="1" parent="1">
          <mxGeometry x="289.5" y="418" width="530.5" height="50" as="geometry" />
        </mxCell>
        <mxCell id="rSH3QUQZg27DagNOebdl-4" value="&lt;b&gt;param size &lt;br&gt;&amp;lt;&lt;/b&gt;&lt;b style=&quot;border-color: var(--border-color);&quot;&gt;varint&lt;br&gt;1-&lt;/b&gt;&lt;b&gt;4b&amp;gt;&lt;/b&gt;" style="rounded=0;whiteSpace=wrap;html=1;fillColor=#f8cecc;strokeColor=#b85450;" vertex="1" parent="1">
          <mxGeometry x="290" y="418" width="130" height="44" as="geometry" />
        </mxCell>
        <mxCell id="rSH3QUQZg27DagNOebdl-5" value="&lt;b style=&quot;border-color: var(--border-color);&quot;&gt;length&lt;br&gt;&amp;lt;&lt;b style=&quot;border-color: var(--border-color);&quot;&gt;varint&lt;br&gt;1-&lt;/b&gt;4b&amp;gt;&lt;/b&gt;" style="rounded=0;whiteSpace=wrap;html=1;fillColor=#F8B5B5;strokeColor=#b85450;" vertex="1" parent="1">
          <mxGeometry x="420" y="418" width="140" height="44" as="geometry" />
        </mxCell>
        <mxCell id="rSH3QUQZg27DagNOebdl-6" value="&lt;b style=&quot;border-color: var(--border-color);&quot;&gt;param string&lt;br&gt;&amp;lt;string&amp;gt;&lt;br&gt;&lt;/b&gt;" style="rounded=0;whiteSpace=wrap;html=1;fillColor=#f8cecc;strokeColor=#b85450;" vertex="1" parent="1">
          <mxGeometry x="560" y="418" width="200" height="44" as="geometry" />
        </mxCell>
        <mxCell id="rSH3QUQZg27DagNOebdl-7" value="&lt;font style=&quot;font-size: 9px;&quot;&gt;&lt;b&gt;param #1&lt;/b&gt;&lt;/font&gt;" style="text;html=1;strokeColor=none;fillColor=none;align=center;verticalAlign=middle;whiteSpace=wrap;rounded=0;" vertex="1" parent="1">
          <mxGeometry x="763" y="426" width="60" height="30" as="geometry" />
        </mxCell>
        <mxCell id="rSH3QUQZg27DagNOebdl-9" value="&lt;b&gt;&lt;font style=&quot;font-size: 16px;&quot;&gt;...&lt;/font&gt;&lt;/b&gt;" style="rounded=0;whiteSpace=wrap;html=1;fillColor=#E1DDDA;strokeColor=#b85450;" vertex="1" parent="1">
          <mxGeometry x="287" y="711" width="530" height="30" as="geometry" />
        </mxCell>
        <mxCell id="rSH3QUQZg27DagNOebdl-10" value="&lt;b style=&quot;border-color: var(--border-color);&quot;&gt;&lt;br&gt;&lt;/b&gt;" style="rounded=0;whiteSpace=wrap;html=1;fillColor=#f8cecc;strokeColor=#b85450;" vertex="1" parent="1">
          <mxGeometry x="286.5" y="660" width="530.5" height="50" as="geometry" />
        </mxCell>
        <mxCell id="rSH3QUQZg27DagNOebdl-11" value="&lt;b&gt;param size &lt;br&gt;&amp;lt;&lt;/b&gt;&lt;b style=&quot;border-color: var(--border-color);&quot;&gt;varint&lt;br&gt;1-&lt;/b&gt;&lt;b&gt;4b&amp;gt;&lt;/b&gt;" style="rounded=0;whiteSpace=wrap;html=1;fillColor=#f8cecc;strokeColor=#b85450;" vertex="1" parent="1">
          <mxGeometry x="287" y="660" width="130" height="44" as="geometry" />
        </mxCell>
        <mxCell id="rSH3QUQZg27DagNOebdl-12" value="&lt;b style=&quot;border-color: var(--border-color);&quot;&gt;length&lt;br&gt;&amp;lt;&lt;b style=&quot;border-color: var(--border-color);&quot;&gt;varint&lt;br&gt;1-&lt;/b&gt;4b&amp;gt;&lt;/b&gt;" style="rounded=0;whiteSpace=wrap;html=1;fillColor=#F8B5B5;strokeColor=#b85450;" vertex="1" parent="1">
          <mxGeometry x="417" y="660" width="140" height="44" as="geometry" />
        </mxCell>
        <mxCell id="rSH3QUQZg27DagNOebdl-13" value="&lt;b style=&quot;border-color: var(--border-color);&quot;&gt;param string&lt;br&gt;&amp;lt;string&amp;gt;&lt;br&gt;&lt;/b&gt;" style="rounded=0;whiteSpace=wrap;html=1;fillColor=#f8cecc;strokeColor=#b85450;" vertex="1" parent="1">
          <mxGeometry x="557" y="660" width="200" height="44" as="geometry" />
        </mxCell>
        <mxCell id="rSH3QUQZg27DagNOebdl-14" value="&lt;font style=&quot;font-size: 9px;&quot;&gt;&lt;b&gt;param #1&lt;/b&gt;&lt;/font&gt;" style="text;html=1;strokeColor=none;fillColor=none;align=center;verticalAlign=middle;whiteSpace=wrap;rounded=0;" vertex="1" parent="1">
          <mxGeometry x="760" y="668" width="60" height="30" as="geometry" />
        </mxCell>
        <mxCell id="rSH3QUQZg27DagNOebdl-15" value="&lt;b style=&quot;border-color: var(--border-color);&quot;&gt;&lt;br&gt;&lt;/b&gt;" style="rounded=0;whiteSpace=wrap;html=1;fillColor=#f8cecc;strokeColor=#b85450;" vertex="1" parent="1">
          <mxGeometry x="286.5" y="742" width="530.5" height="50" as="geometry" />
        </mxCell>
        <mxCell id="rSH3QUQZg27DagNOebdl-16" value="&lt;b&gt;param size &lt;br&gt;&amp;lt;&lt;/b&gt;&lt;b style=&quot;border-color: var(--border-color);&quot;&gt;varint&lt;br&gt;1-&lt;/b&gt;&lt;b&gt;4b&amp;gt;&lt;/b&gt;" style="rounded=0;whiteSpace=wrap;html=1;fillColor=#f8cecc;strokeColor=#b85450;" vertex="1" parent="1">
          <mxGeometry x="287" y="742" width="130" height="44" as="geometry" />
        </mxCell>
        <mxCell id="rSH3QUQZg27DagNOebdl-17" value="&lt;b style=&quot;border-color: var(--border-color);&quot;&gt;length&lt;br&gt;&amp;lt;&lt;b style=&quot;border-color: var(--border-color);&quot;&gt;varint&lt;br&gt;1-&lt;/b&gt;4b&amp;gt;&lt;/b&gt;" style="rounded=0;whiteSpace=wrap;html=1;fillColor=#F8B5B5;strokeColor=#b85450;" vertex="1" parent="1">
          <mxGeometry x="417" y="742" width="140" height="44" as="geometry" />
        </mxCell>
        <mxCell id="rSH3QUQZg27DagNOebdl-18" value="&lt;b style=&quot;border-color: var(--border-color);&quot;&gt;param string&lt;br&gt;&amp;lt;string&amp;gt;&lt;br&gt;&lt;/b&gt;" style="rounded=0;whiteSpace=wrap;html=1;fillColor=#f8cecc;strokeColor=#b85450;" vertex="1" parent="1">
          <mxGeometry x="557" y="742" width="200" height="44" as="geometry" />
        </mxCell>
        <mxCell id="rSH3QUQZg27DagNOebdl-19" value="&lt;font style=&quot;font-size: 9px;&quot;&gt;&lt;b&gt;param #1&lt;/b&gt;&lt;/font&gt;" style="text;html=1;strokeColor=none;fillColor=none;align=center;verticalAlign=middle;whiteSpace=wrap;rounded=0;" vertex="1" parent="1">
          <mxGeometry x="760" y="750" width="60" height="30" as="geometry" />
        </mxCell>
        <mxCell id="rSH3QUQZg27DagNOebdl-20" value="&lt;b&gt;call #1&lt;/b&gt;" style="text;html=1;strokeColor=none;fillColor=none;align=center;verticalAlign=middle;whiteSpace=wrap;rounded=0;" vertex="1" parent="1">
          <mxGeometry x="881" y="446" width="60" height="30" as="geometry" />
        </mxCell>
        <mxCell id="rSH3QUQZg27DagNOebdl-21" value="&lt;b&gt;call #n&lt;/b&gt;" style="text;html=1;strokeColor=none;fillColor=none;align=center;verticalAlign=middle;whiteSpace=wrap;rounded=0;" vertex="1" parent="1">
          <mxGeometry x="880" y="773" width="60" height="30" as="geometry" />
        </mxCell>
      </root>
    </mxGraphModel>
  </diagram>
</mxfile>
